<svg version="1.1" id="Layer_1" xmlns="http://www.w3.org/2000/svg" xmlns:xlink="http://www.w3.org/1999/xlink" x="0px" y="0px"
	 width="100%" viewBox="0 0 1024 576" enable-background="new 0 0 1024 576" xml:space="preserve">
<path fill="#000000" opacity="1.000000" stroke="none" 
	d="
M1025.000000,140.000000 
	C1025.000000,285.625702 1025.000000,431.251434 1025.000000,576.938599 
	C683.666687,576.938599 342.333344,576.938599 1.000000,576.938599 
	C1.000000,554.583984 1.000000,532.257019 1.424528,509.488312 
	C6.669210,509.230835 11.489130,509.567352 16.309553,509.574707 
	C49.632328,509.625610 82.956566,509.454254 116.276886,509.746582 
	C122.665314,509.802643 127.936577,508.219971 132.916245,504.485321 
	C137.565781,500.998322 142.415573,497.775909 147.210114,494.484985 
	C188.753479,465.970215 230.295227,437.453064 271.857849,408.966400 
	C285.856628,399.371765 299.927032,389.881653 313.925323,380.286316 
	C315.363922,379.300201 317.473206,378.448944 317.133331,376.230835 
	C316.762756,373.812378 314.220520,374.138947 312.670380,373.809448 
	C304.243347,372.018372 295.667816,370.876740 287.306519,368.841492 
	C280.837189,367.266754 275.154510,367.526489 269.204468,370.957062 
	C260.134247,376.186646 250.649719,380.698547 241.333374,385.500214 
	C220.189209,396.398010 199.045731,407.297180 177.892105,418.176605 
	C144.456253,435.372864 111.003494,452.536194 77.575127,469.746948 
	C58.050236,479.799469 38.620914,490.040070 19.014437,499.930115 
	C13.155594,502.885437 7.809287,507.123077 1.000000,508.000000 
	C1.000000,438.976685 1.000000,369.953339 1.238903,300.628113 
	C4.602816,302.060516 8.031329,300.112518 11.189856,301.089111 
	C20.549292,303.983093 28.947412,300.987305 37.097786,296.832153 
	C42.440651,294.108307 48.017147,292.782959 53.974827,293.184814 
	C65.071091,293.933289 75.341011,290.538666 85.648758,287.136292 
	C99.342064,282.616425 111.195938,274.239563 124.471771,268.851105 
	C133.328369,265.256317 141.247620,260.038818 148.987366,254.486206 
	C158.592056,247.595627 167.745926,239.726852 178.190369,234.449310 
	C190.000061,228.481918 200.982239,221.860855 211.015106,213.225159 
	C219.191742,206.187195 228.558640,200.595901 237.054199,193.872650 
	C242.661011,189.435501 248.767914,185.586411 255.693863,183.400375 
	C266.066101,180.126617 276.185944,176.138870 285.290558,170.222809 
	C298.090454,161.905640 311.598114,154.424698 321.429169,142.199722 
	C325.894836,136.646667 331.832458,132.952835 338.175934,129.818954 
	C354.741669,121.634987 371.734192,114.284599 387.411163,104.362778 
	C396.546875,98.580864 405.384216,92.324799 415.144226,87.527946 
	C423.189392,83.573936 431.510376,80.151283 438.994965,75.058640 
	C443.975037,71.670128 449.432037,68.632591 452.352783,63.292866 
	C459.216644,50.744240 470.350861,44.203487 483.534607,41.261105 
	C502.849487,36.950352 519.563232,27.725077 535.337646,16.305372 
	C538.726196,13.852292 540.834534,10.574336 541.930359,6.600184 
	C542.559570,4.318317 542.310120,2.291752 540.000000,1.000000 
	C665.690002,1.000000 791.379944,1.000000 917.281067,1.193292 
	C914.032349,4.439084 916.505432,8.660557 915.361755,12.216281 
	C913.272339,18.712891 915.737244,23.890089 920.636597,28.191179 
	C929.498901,35.971409 937.787354,44.258400 945.736206,53.033504 
	C955.543518,63.860401 964.516479,74.552994 968.722595,89.114960 
	C971.399902,98.384064 974.755493,107.980438 981.325134,115.562775 
	C988.515869,123.861908 996.186096,131.745377 1003.638733,139.817886 
	C1005.879578,142.245148 1008.465149,143.117981 1011.743103,142.111954 
	C1016.048645,140.790588 1020.483582,140.092529 1025.000000,140.000000 
M733.103149,215.397491 
	C828.019165,310.006348 922.935181,404.615204 1017.851257,499.224091 
	C937.875183,355.558777 857.597656,212.029327 777.007874,68.876160 
	C774.130920,70.024551 773.407715,71.403473 772.726318,72.700287 
	C765.226501,86.974861 757.725586,101.249245 750.322388,115.574043 
	C737.714844,139.968811 725.236328,164.430542 712.533081,188.775162 
	C710.995911,191.721069 711.364929,193.630966 713.546448,195.788895 
	C719.941589,202.115036 726.257263,208.521423 733.103149,215.397491 
M730.697327,218.802963 
	C723.398621,211.851562 716.722351,204.227081 708.994202,197.996796 
	C706.838196,199.042984 706.262756,200.701630 705.509277,202.132980 
	C690.002808,231.589020 674.512634,261.053680 659.072021,290.544281 
	C653.519226,301.149750 653.546204,301.247070 664.165283,307.165192 
	C713.779663,334.815857 763.412659,362.433105 813.044495,390.052582 
	C876.357300,425.285400 939.673584,460.511963 1003.000061,495.720245 
	C1004.723633,496.678528 1006.422424,497.988617 1009.655090,497.613831 
	C1000.267029,488.234222 991.563965,479.548370 982.871155,470.852325 
	C941.300110,429.265594 899.747498,387.660400 858.158081,346.092041 
	C815.855713,303.811096 773.518066,261.565399 730.697327,218.802963 
M741.925964,458.090485 
	C712.518372,452.513092 683.117493,446.899963 653.700867,441.370575 
	C633.252625,437.526947 612.764221,433.893951 592.337524,429.940857 
	C588.063965,429.113831 585.875916,430.674377 584.054565,434.234650 
	C572.610046,456.606689 561.039368,478.914124 549.562866,501.269928 
	C545.341980,509.492096 545.439697,509.610718 554.571411,509.610626 
	C705.556641,509.608704 856.541870,509.599640 1007.527100,509.562683 
	C1008.458923,509.562469 1009.644592,510.166504 1010.408081,508.739166 
	C1004.963928,507.724609 999.576111,506.747864 994.199219,505.713837 
	C967.893188,500.654968 941.604614,495.503510 915.282471,490.530060 
	C875.382751,482.991119 835.461792,475.564575 795.546997,468.105774 
	C777.889893,464.806244 760.225647,461.544495 741.925964,458.090485 
M827.779236,442.655304 
	C884.415833,461.346436 941.052368,480.037567 997.688965,498.728699 
	C997.874756,498.291748 998.060608,497.854767 998.246460,497.417816 
	C989.984436,492.841064 981.718323,488.271851 973.461182,483.686432 
	C899.646057,442.694702 825.847473,401.673096 752.011536,360.718933 
	C720.263794,343.109558 688.416565,325.679565 656.680908,308.048615 
	C652.983093,305.994263 650.849609,305.564209 648.572388,310.108032 
	C639.101562,329.004913 629.209839,347.690491 619.531738,366.484070 
	C616.366760,372.630280 616.409668,372.789825 623.048767,375.006195 
	C642.162537,381.386963 661.311523,387.662262 680.445618,393.982361 
	C729.307312,410.121613 778.168335,426.262634 827.779236,442.655304 
M269.526337,509.484680 
	C271.437378,509.115234 272.760590,507.825867 274.059296,506.531677 
	C281.720673,498.896881 289.449249,491.344879 297.443481,484.043365 
	C309.115448,473.382812 320.112946,461.994415 331.407623,450.939667 
	C349.841248,432.897644 368.613098,415.197266 386.780121,396.882660 
	C387.894958,395.758759 389.526184,394.887695 389.466064,392.649261 
	C387.398010,390.880493 384.630554,390.860413 382.100342,390.369873 
	C365.923676,387.233704 349.678284,384.428101 333.568085,380.986847 
	C328.669525,379.940491 325.065094,380.912567 321.141998,383.653015 
	C289.534027,405.732391 257.842041,427.691620 226.146912,449.645996 
	C201.697891,466.581207 177.173447,483.407837 152.773575,500.413391 
	C149.328293,502.814606 145.516602,504.907440 141.708450,509.560577 
	C184.915405,509.560577 226.807343,509.560577 269.526337,509.484680 
M431.553619,486.103058 
	C449.380035,461.124268 467.206451,436.145447 484.849030,411.424225 
	C483.713104,409.400574 482.287140,409.362488 481.017853,409.118286 
	C455.208160,404.153320 429.391296,399.225189 403.586273,394.236176 
	C401.576172,393.847534 400.083740,394.321716 398.617188,395.703949 
	C395.720551,398.434021 392.597565,400.927521 389.748138,403.703522 
	C371.989258,421.004486 354.322845,438.400482 336.537292,455.673889 
	C326.994263,464.942139 318.016876,474.766754 308.014923,483.596771 
	C300.665619,490.085022 294.057587,497.415039 287.158020,504.408173 
	C286.150269,505.429596 284.798889,506.375336 285.190613,508.311584 
	C286.497772,509.927704 288.428955,509.575562 290.198517,509.576599 
	C330.164337,509.599518 370.130219,509.560120 410.095764,509.671021 
	C413.500305,509.680481 415.809113,508.481598 417.650482,505.849182 
	C422.126831,499.450043 426.617096,493.060577 431.553619,486.103058 
M882.364258,480.765381 
	C917.689453,487.416290 953.014648,494.067200 988.339783,500.718109 
	C984.943848,498.585846 981.375305,497.245667 977.758179,496.053223 
	C905.794434,472.329224 833.830750,448.605103 761.854858,424.917999 
	C714.711548,409.403259 667.535156,393.988617 620.418335,378.393982 
	C616.187561,376.993683 613.648865,377.607269 611.569763,381.715363 
	C605.109192,394.480774 598.367493,407.103485 591.812744,419.821747 
	C589.104370,425.076721 589.192993,425.343506 595.162476,426.484955 
	C618.865662,431.017517 642.598633,435.394073 666.304199,439.914368 
	C699.973450,446.334595 733.613708,452.907532 767.293091,459.274109 
	C805.398376,466.477356 843.533203,473.524475 882.364258,480.765381 
M532.411804,418.579651 
	C521.942993,416.653137 511.436523,414.905518 501.024109,412.711365 
	C496.904816,411.843323 494.695953,413.156494 492.368958,416.468719 
	C474.797821,441.479370 456.940887,466.289398 439.392578,491.315887 
	C435.473114,496.905579 430.792664,502.103912 428.038269,508.442169 
	C430.328644,510.186493 432.402985,509.569763 434.324463,509.573181 
	C463.130829,509.624237 491.937317,509.618286 520.743774,509.620728 
	C535.073486,509.621948 534.916870,509.536530 541.576477,496.635345 
	C550.958008,478.461090 560.619751,460.431641 570.115967,442.316315 
	C572.555054,437.663422 574.823120,432.920868 577.502747,427.552429 
	C562.250244,423.730164 547.612305,421.712006 532.411804,418.579651 
M566.234253,222.168228 
	C569.270569,223.531525 572.268555,224.989960 575.354004,226.231125 
	C578.393738,227.453873 581.671204,228.379852 583.800171,224.845520 
	C585.843445,221.453552 585.836426,218.007172 583.226074,214.636581 
	C579.016174,209.200668 574.127625,204.335449 568.720886,200.290573 
	C546.321045,183.532913 521.427063,176.617889 493.361816,181.212982 
	C452.228729,187.947647 418.446533,224.084625 415.202271,265.511475 
	C414.857056,269.919556 415.775757,273.570190 419.800720,275.695679 
	C423.569916,277.686066 426.227844,274.859039 428.562164,272.661438 
	C434.382843,267.181671 441.776794,264.385010 448.534821,260.535370 
	C451.690063,258.738007 455.383759,257.865509 459.167267,258.584778 
	C463.236664,259.358398 466.647308,258.048492 469.869568,255.620895 
	C476.806091,250.395004 484.289856,246.085312 492.152374,242.376541 
	C496.943756,240.116425 501.529510,237.621964 505.721924,234.115799 
	C523.362427,219.362991 543.042297,213.490768 566.234253,222.168228 
M599.499207,267.609222 
	C597.877075,271.820312 601.837769,272.393463 603.886902,273.570557 
	C615.583557,280.289459 627.450317,286.712677 639.272949,293.211517 
	C646.531982,297.201752 646.492126,297.154999 650.366699,289.820374 
	C659.076904,273.331421 667.890259,256.896790 676.571899,240.392822 
	C684.710266,224.921600 692.743347,209.394928 700.794312,193.877914 
	C701.850037,191.843216 703.302979,189.782700 701.042847,187.535965 
	C693.242920,179.782227 685.501526,171.969437 677.674133,164.243652 
	C675.389282,161.988464 673.352905,161.782516 671.189819,164.870789 
	C665.376038,173.171417 659.019775,181.099716 653.366882,189.504074 
	C635.837280,215.565857 616.198364,240.171799 599.499207,267.609222 
M454.832916,399.879913 
	C464.158264,401.606903 473.524323,403.145813 482.789124,405.152313 
	C486.561584,405.969299 489.099121,405.251556 491.384766,402.154938 
	C503.628662,385.566925 514.674255,368.157043 526.430359,351.235443 
	C526.861389,350.614990 526.888123,349.713593 527.116394,348.896210 
	C526.418884,348.376770 525.950928,347.809357 525.361938,347.621429 
	C506.982605,341.756348 488.581299,335.959991 470.215668,330.052582 
	C468.034668,329.351074 466.668091,330.275513 465.350861,331.592987 
	C446.887238,350.059143 426.844543,366.879333 408.844391,385.824921 
	C407.772736,386.952911 406.049591,387.804260 406.408905,390.455231 
	C422.073212,394.066772 438.074890,396.851837 454.832916,399.879913 
M549.187195,350.299316 
	C567.362915,356.325165 585.552124,362.311127 603.702026,368.413696 
	C606.962769,369.510010 608.911377,368.819855 610.540161,365.667206 
	C620.777893,345.851288 631.088623,326.072021 641.556152,306.376801 
	C643.467896,302.779633 642.942139,300.561615 639.476807,298.649261 
	C625.770203,291.085175 612.075317,283.498871 598.428894,275.827148 
	C595.679871,274.281769 594.057068,274.826630 592.251648,277.395081 
	C576.830994,299.333252 561.261169,321.166473 545.805725,343.080353 
	C542.520996,347.737701 542.826843,348.288269 549.187195,350.299316 
M478.060150,327.534302 
	C493.917847,332.572601 509.775238,337.611877 525.633484,342.648407 
	C528.976685,343.710205 531.741699,344.028778 534.284363,340.410156 
	C550.372253,317.514587 566.641174,294.745453 582.976868,272.025543 
	C585.461426,268.569946 584.975281,266.603821 581.303528,264.630737 
	C572.502380,259.901276 563.758484,255.054626 555.137695,250.005676 
	C552.109741,248.232285 550.107727,248.650345 547.750854,251.073914 
	C541.714355,257.281372 535.487000,263.303833 529.308472,269.372375 
	C511.721649,286.646240 494.125610,303.910767 476.521179,321.166718 
	C474.004395,323.633667 472.177704,325.927612 478.060150,327.534302 
M595.318970,370.254608 
	C578.233215,364.683075 561.142944,359.125336 544.066406,353.525757 
	C541.387146,352.647156 539.130249,352.205444 537.066406,355.039795 
	C525.139343,371.419556 512.635193,387.375793 501.230011,404.141388 
	C499.120850,407.241852 499.680603,408.372742 503.250092,409.035431 
	C527.291687,413.498657 551.324524,418.011383 575.328979,422.668884 
	C578.657593,423.314728 580.530640,422.600830 582.110352,419.523804 
	C588.333862,407.401764 594.892517,395.451630 601.104431,383.323822 
	C606.937683,371.935150 606.419006,374.282349 595.318970,370.254608 
M422.500427,313.317505 
	C420.914368,314.212158 419.238861,314.979401 417.755463,316.020386 
	C390.948425,334.832672 364.163757,353.676849 337.378326,372.519989 
	C336.158447,373.378143 334.809937,374.195007 335.326416,376.144897 
	C337.441833,377.956665 340.157959,378.252258 342.732483,378.747894 
	C355.165222,381.141266 367.784210,382.787689 380.013306,385.950928 
	C390.343475,388.622955 398.852539,388.276459 405.059937,378.508881 
	C405.319916,378.099823 405.763641,377.802704 406.138123,377.471954 
	C423.510071,362.128601 438.941620,344.821686 455.518616,328.673950 
	C458.424530,325.843292 457.772858,323.677979 454.111542,322.426086 
	C444.978546,319.303436 435.816895,316.263031 426.636993,313.281067 
	C425.586731,312.939880 424.347717,313.179871 422.500427,313.317505 
z"/>
</svg>