<svg version="1.1" id="Layer_1" xmlns="http://www.w3.org/2000/svg" xmlns:xlink="http://www.w3.org/1999/xlink" x="0px" y="0px"
	 width="100%" viewBox="0 0 1920 1080" enable-background="new 0 0 1920 1080" xml:space="preserve">
<path fill="#FFFFFF" opacity="1.000000" stroke="none" 
	d="
M1404.000000,1081.000000 
	C936.000061,1081.000000 468.500153,1081.000000 1.000188,1081.000000 
	C1.000125,721.000122 1.000125,361.000305 1.000063,1.000333 
	C640.999756,1.000222 1280.999512,1.000222 1920.999512,1.000111 
	C1920.999634,360.999664 1920.999634,720.999329 1920.999756,1080.999512 
	C1748.833374,1081.000000 1576.666626,1081.000000 1404.000000,1081.000000 
M1091.691650,449.794983 
	C1098.032837,437.777252 1104.370728,425.757812 1110.716187,413.742279 
	C1116.153442,403.446564 1121.654541,393.184174 1127.023315,382.852875 
	C1131.115112,374.978973 1135.043457,367.020233 1139.697266,358.782440 
	C1144.811890,349.071075 1149.911621,339.351837 1155.044067,329.649902 
	C1168.266602,304.655273 1181.516479,279.675018 1194.728760,254.674942 
	C1200.238647,244.249283 1205.756714,233.825912 1211.040039,223.285736 
	C1211.590576,222.187622 1211.097290,219.783585 1210.194092,218.858795 
	C1199.603149,208.014542 1188.832275,197.346359 1178.132080,186.608490 
	C1176.064453,184.533539 1174.838989,184.279648 1172.869873,187.198654 
	C1164.990356,198.879471 1156.790527,210.346161 1148.618652,221.827652 
	C1128.161011,250.570511 1107.654053,279.278290 1087.022705,307.160370 
	C1087.014160,306.493988 1087.113647,305.805206 1086.981201,305.164459 
	C1082.550537,283.723816 1073.401245,264.580322 1058.717407,248.274109 
	C1046.838623,235.082870 1032.701050,225.023956 1016.309204,217.989899 
	C995.020691,208.854568 972.845398,206.907272 950.304504,210.199860 
	C932.139954,212.853226 915.576294,219.991684 900.409607,230.728455 
	C884.814880,241.768265 872.758484,255.604477 863.975647,272.384735 
	C856.510559,286.647278 852.312561,301.773865 850.751953,317.937408 
	C849.578430,330.091553 850.580200,341.828491 853.084229,353.534973 
	C854.636475,360.791901 857.107788,367.852234 858.838501,375.634277 
	C847.449158,383.665527 836.061035,391.698578 824.670166,399.727722 
	C798.077209,418.472412 771.482910,437.215240 744.248291,456.221161 
	C731.652405,464.865845 719.020020,473.457886 706.469360,482.167725 
	C688.549438,494.603668 670.737000,507.194794 652.792664,519.595276 
	C625.495667,538.459045 598.126526,557.218689 570.784912,576.017822 
	C550.275146,590.119629 529.754761,604.206055 509.268982,618.342407 
	C508.495087,618.876465 508.033234,619.862549 507.142578,620.999817 
	C558.791443,620.999817 609.772278,620.749146 660.745789,621.247192 
	C669.218811,621.329895 675.060730,618.371155 680.604004,612.942749 
	C693.064392,600.740784 705.588623,588.603882 718.090637,576.444458 
	C729.876282,564.981812 741.689148,553.547119 753.449585,542.058716 
	C769.857422,526.030457 786.218628,509.954346 802.618347,493.917694 
	C810.067810,486.633087 817.561829,479.393982 825.653809,471.854065 
	C845.677856,452.213013 865.701904,432.571960 886.062805,413.546814 
	C888.051086,415.110443 890.039368,416.674103 891.709778,418.817657 
	C885.946411,424.231873 880.097961,429.558868 874.436829,435.077972 
	C861.532837,447.658295 848.720642,460.332733 835.262329,473.226227 
	C826.300720,481.844116 817.294189,490.415863 808.387329,499.090027 
	C792.796875,514.273376 777.241882,529.493347 761.719177,544.745911 
	C740.019348,566.068115 718.391479,587.463501 696.661987,608.755310 
	C692.622803,612.713135 688.249023,616.329529 683.933228,620.189697 
	C684.705933,620.783325 684.819824,620.947510 684.933777,620.947510 
	C739.726746,620.972046 794.519714,621.004639 849.312439,620.898682 
	C850.832642,620.895752 852.892334,619.794861 853.786377,618.549622 
	C865.064575,602.839600 876.142212,586.985901 887.336792,571.215454 
	C897.313782,557.160156 907.429199,543.202881 917.377136,529.127197 
	C925.344116,517.854370 933.151550,506.468781 941.665222,494.829071 
	C946.414307,488.088531 951.162903,481.347687 955.912415,474.607513 
	C962.429504,465.359009 968.947327,456.111023 976.419678,446.976196 
	C980.603821,446.719574 984.788025,446.462952 988.677734,446.806091 
	C986.427856,449.963623 984.172363,453.117249 981.928894,456.279358 
	C972.536560,469.517395 963.147888,482.757996 953.159973,496.318848 
	C948.076721,503.637726 943.027893,510.980774 937.903076,518.270386 
	C927.349121,533.282654 916.802185,548.300110 906.164795,563.253113 
	C892.559082,582.378723 878.867004,601.442932 864.879883,620.998108 
	C909.872803,620.998108 954.144409,621.013000 998.415710,620.918518 
	C999.610291,620.915955 1001.167603,620.013428 1001.919861,619.039429 
	C1003.499023,616.994934 1004.764221,614.680298 1005.966492,612.376465 
	C1014.227356,596.546387 1022.404114,580.672485 1030.680664,564.850708 
	C1034.738281,557.093994 1039.032104,549.460693 1043.072266,541.695251 
	C1047.479980,533.223389 1051.717896,524.663208 1056.679321,515.812439 
	C1058.462524,512.553223 1060.287598,509.316071 1062.021240,506.030670 
	C1068.057373,494.591339 1074.095703,483.152893 1080.066040,471.679199 
	C1083.787964,464.526581 1087.389038,457.311249 1091.691650,449.794983 
M1101.787598,453.702057 
	C1099.123291,458.639038 1096.392334,463.541382 1093.807129,468.519379 
	C1085.215454,485.063080 1076.676270,501.633972 1067.706299,518.768799 
	C1050.130859,552.709839 1032.555542,586.650940 1014.768860,621.000000 
	C1017.445984,621.000000 1019.277893,621.000000 1021.109741,621.000000 
	C1147.265381,621.000000 1273.420898,620.999084 1399.576538,621.000366 
	C1469.403687,621.001099 1539.230957,621.009888 1609.058105,620.969360 
	C1610.169067,620.968689 1611.279785,620.384583 1612.074341,619.588867 
	C1611.999634,619.411194 1611.924927,619.233582 1611.984985,618.312378 
	C1610.358276,615.361633 1608.728760,612.412354 1607.105469,609.459717 
	C1598.662964,594.104065 1590.339966,578.681152 1581.752441,563.406982 
	C1569.059692,540.830994 1556.100708,518.404785 1543.404541,495.830811 
	C1533.473633,478.173706 1523.864746,460.335693 1513.942627,442.673676 
	C1499.603516,417.148987 1485.048584,391.745575 1470.703125,366.224548 
	C1459.039795,345.474884 1447.614990,324.591278 1435.964600,303.834259 
	C1421.636963,278.307190 1407.181030,252.852127 1392.788452,227.361511 
	C1380.526978,205.645172 1368.221924,183.953278 1356.035767,162.194855 
	C1341.417969,136.094894 1326.917480,109.929237 1312.337891,83.807846 
	C1309.336426,78.430321 1306.209961,73.122543 1302.823608,67.230209 
	C1300.668213,70.745338 1298.731689,73.521820 1297.178955,76.498413 
	C1288.246216,93.622101 1279.402344,110.792213 1270.532349,127.948669 
	C1260.179810,147.972946 1249.779053,167.972565 1239.499268,188.034103 
	C1232.530151,201.634979 1225.733398,215.324188 1218.204346,229.228149 
	C1217.776123,229.906158 1217.290771,230.555099 1216.927856,231.266464 
	C1208.593872,247.597702 1200.375977,263.989014 1191.927368,280.260681 
	C1177.406982,308.226379 1162.744263,336.118195 1147.804321,364.678284 
	C1144.469971,371.285797 1141.197144,377.925201 1137.790161,384.494995 
	C1125.928833,407.367920 1114.021118,430.216797 1101.787598,453.702057 
M361.500000,621.000000 
	C402.662537,621.000000 443.825195,621.040894 484.987274,620.903198 
	C487.584961,620.894531 490.580170,620.089355 492.711487,618.649597 
	C516.052673,602.882141 539.269043,586.929749 562.498047,570.996521 
	C580.900452,558.373901 599.248901,545.672546 617.664612,533.069336 
	C648.967407,511.646606 680.301086,490.269043 711.628906,468.882874 
	C718.802246,463.985901 726.004456,459.131042 734.058472,453.670258 
	C731.094116,452.921539 729.284119,452.384155 727.440796,452.011993 
	C716.125000,449.726990 704.817749,447.394745 693.475769,445.246277 
	C684.539001,443.553436 675.473206,441.078125 667.337158,447.905212 
	C665.986328,449.038696 664.331299,449.840759 662.746216,450.659332 
	C640.718750,462.034851 618.682434,473.393219 596.641357,484.742279 
	C574.020935,496.389618 551.389465,508.015686 528.769043,519.663025 
	C506.727966,531.012085 484.694702,542.376282 462.658020,553.733826 
	C440.621338,565.091248 418.615723,576.509460 396.538818,587.788086 
	C376.636902,597.955566 356.653168,607.962769 336.720612,618.070435 
	C335.529297,618.674561 334.471893,619.542786 332.282623,621.000000 
	C342.598328,621.000000 351.549164,621.000000 361.500000,621.000000 
M806.957397,779.646790 
	C812.430359,793.035339 817.857971,806.442871 823.448669,819.782104 
	C823.987915,821.068726 825.518372,822.824890 826.624329,822.850952 
	C836.703308,823.088501 846.790283,822.990356 856.657715,822.990356 
	C856.657715,767.256226 856.657715,712.196960 856.657715,657.354492 
	C846.242737,657.354492 836.172424,657.354492 825.917236,657.354492 
	C825.917236,685.620300 825.917236,713.532166 825.917236,741.444092 
	C814.210999,714.632141 803.107117,687.653137 791.881226,660.725037 
	C791.274353,659.269226 789.666809,657.197021 788.488281,657.172363 
	C776.067078,656.912842 763.638367,657.011841 751.301819,657.011841 
	C751.301819,712.662598 751.301819,767.721619 751.301819,822.685974 
	C761.674988,822.685974 771.743530,822.685974 782.228699,822.685974 
	C782.228699,788.792725 782.228699,755.211975 782.228699,720.756226 
	C790.569397,740.771423 798.534668,759.885742 806.957397,779.646790 
M1175.956909,784.619202 
	C1170.648926,775.032471 1165.340820,765.445740 1160.083862,755.951355 
	C1164.051392,751.802917 1168.172363,747.860474 1171.871826,743.555908 
	C1182.045898,731.717773 1188.955078,718.658081 1189.124634,702.363708 
	C1189.365967,679.160217 1169.127441,656.789185 1144.599609,657.929626 
	C1135.290405,658.362488 1125.944214,658.016785 1116.615112,657.982605 
	C1115.144653,657.977234 1113.675415,657.636658 1112.204834,657.629028 
	C1104.842651,657.590576 1097.480225,657.611389 1090.341309,657.611389 
	C1090.341309,713.089355 1090.341309,768.474854 1090.341309,823.648438 
	C1100.753906,823.648438 1110.822754,823.648438 1121.000000,823.648438 
	C1121.000000,811.642334 1121.282837,799.977661 1120.880737,788.336731 
	C1120.679565,782.517883 1121.308594,778.158630 1128.040894,776.906860 
	C1129.981079,776.546082 1131.727905,775.146301 1133.548096,774.230591 
	C1134.616089,775.939209 1135.733154,777.527100 1136.649292,779.223511 
	C1144.086548,792.995911 1151.444336,806.811584 1158.960693,820.540527 
	C1159.726074,821.938782 1161.353027,823.812012 1162.618286,823.841736 
	C1173.688354,824.101624 1184.767090,823.992004 1197.260498,823.992004 
	C1189.809937,810.432190 1182.926392,797.904236 1175.956909,784.619202 
M1346.964966,727.932190 
	C1346.650513,727.182373 1346.150757,726.456787 1346.048706,725.679138 
	C1343.490967,706.184753 1335.488892,689.338135 1321.198486,675.767151 
	C1305.951050,661.287354 1287.612549,655.231018 1266.994751,659.227661 
	C1249.750488,662.570374 1236.080933,672.531616 1226.050049,686.964844 
	C1209.834229,710.297424 1206.550415,736.327637 1212.174438,763.477722 
	C1216.277954,783.287476 1226.103638,800.201111 1242.857300,812.284607 
	C1257.101318,822.557922 1273.031372,826.405945 1290.369385,822.944885 
	C1304.765625,820.071045 1316.341064,812.304016 1326.067017,801.465881 
	C1335.922485,790.483521 1342.468506,777.682373 1344.770752,763.302673 
	C1346.581299,751.993713 1346.331665,740.354919 1346.964966,727.932190 
M1502.000000,734.643677 
	C1501.654907,730.728760 1501.770142,726.706665 1500.887573,722.916931 
	C1496.282837,703.143616 1488.334229,685.257202 1471.792480,672.251038 
	C1457.256348,660.821655 1440.761108,656.059326 1422.724243,659.324829 
	C1406.962158,662.178406 1394.267822,670.684570 1383.947021,683.332947 
	C1366.722656,704.442322 1362.809570,729.002563 1365.311279,754.737671 
	C1367.016602,772.282166 1373.895874,788.269043 1386.102051,801.842407 
	C1396.973145,813.931213 1409.929199,822.040955 1425.863770,823.819214 
	C1454.185913,826.980103 1476.110962,812.463684 1489.916992,789.093323 
	C1499.624023,772.661682 1503.051025,754.587646 1502.000000,734.643677 
M330.047455,747.711670 
	C325.608429,764.357788 321.198730,781.011841 316.718018,797.646729 
	C314.477142,805.966248 312.106628,814.250793 309.717621,822.828186 
	C321.166443,822.828186 331.959137,822.828186 342.782196,822.828186 
	C345.710815,812.164734 348.597656,801.653320 351.523407,791.000183 
	C367.128174,791.000183 382.615814,790.921265 398.099152,791.142578 
	C399.409454,791.161316 401.446808,792.958130 401.862549,794.320679 
	C404.445557,802.786438 406.585297,811.386658 409.085968,819.879333 
	C409.443359,821.093201 410.938507,822.839478 411.940186,822.861938 
	C421.899445,823.084900 431.865631,822.997131 442.712006,822.997131 
	C427.559601,766.941345 412.581848,711.531677 397.607178,656.133423 
	C383.391113,656.133423 369.420013,656.133423 355.351105,656.133423 
	C351.382141,670.480347 347.405945,684.719604 343.507782,698.980103 
	C339.135040,714.976624 334.832855,730.992554 330.047455,747.711670 
M972.489624,689.000000 
	C976.591064,689.000000 980.692444,689.000000 984.687622,689.000000 
	C984.687622,678.331238 984.687622,668.261292 984.687622,657.599792 
	C952.365967,657.599792 920.355286,657.599792 888.255432,657.599792 
	C888.255432,712.553711 888.255432,767.620361 888.255432,823.343262 
	C920.307251,823.343262 952.102539,823.343262 983.799194,823.343262 
	C983.799194,812.988098 983.799194,802.703552 983.799194,791.996826 
	C962.532471,791.996826 941.461121,791.996826 920.228699,791.996826 
	C920.228699,776.502319 920.228699,761.434326 920.228699,745.941040 
	C942.857422,745.941040 965.262024,745.941040 987.743164,745.941040 
	C987.743164,735.111511 987.743164,724.709717 987.743164,713.884827 
	C965.085632,713.884827 942.681213,713.884827 920.285034,713.884827 
	C920.285034,705.386719 920.285034,697.317444 920.285034,689.000000 
	C937.543274,689.000000 954.517578,689.000000 972.489624,689.000000 
M587.482788,823.000000 
	C591.252441,823.000000 595.022156,823.000000 599.000000,823.000000 
	C599.000000,809.266785 598.929016,796.122375 599.089111,782.980774 
	C599.109253,781.324158 599.914490,778.682495 601.079773,778.181885 
	C622.447021,769.002380 640.420227,755.386169 654.458008,736.911438 
	C664.544678,723.636475 669.755310,708.755737 665.997070,691.770081 
	C661.670044,672.214111 642.843262,656.446045 622.571655,656.920471 
	C605.915588,657.310364 589.243164,656.994812 572.578003,657.009277 
	C571.136902,657.010498 569.695862,657.142090 568.283813,657.211731 
	C568.283813,712.614075 568.283813,767.679199 568.283813,823.000000 
	C574.540161,823.000000 580.514771,823.000000 587.482788,823.000000 
M1606.000000,680.465393 
	C1606.000000,673.040283 1606.000000,665.615112 1606.000000,658.302979 
	C1573.992554,658.302979 1542.604370,658.302979 1511.310791,658.302979 
	C1511.310791,669.007446 1511.310791,679.406311 1511.310791,690.217529 
	C1521.687866,690.217529 1531.758911,690.217529 1542.210693,690.217529 
	C1542.210693,735.020325 1542.210693,779.403748 1542.210693,823.687805 
	C1552.676758,823.687805 1562.742432,823.687805 1573.197266,823.687805 
	C1573.197266,778.993347 1573.197266,734.609863 1573.197266,689.809937 
	C1584.326172,689.809937 1595.063354,689.809937 1606.000000,689.809937 
	C1606.000000,686.745911 1606.000000,684.100220 1606.000000,680.465393 
M462.000000,694.500000 
	C462.000000,737.233826 462.000000,779.967590 462.000000,822.750244 
	C491.241608,822.750244 519.958862,822.750244 548.745239,822.750244 
	C548.745239,812.103088 548.745239,801.707458 548.745239,790.905029 
	C530.100830,790.905029 511.706848,790.905029 493.448547,790.905029 
	C493.448547,746.151367 493.448547,701.808716 493.448547,657.298279 
	C483.315002,657.298279 472.770294,657.298279 462.000000,657.298279 
	C462.000000,669.563538 462.000000,681.531799 462.000000,694.500000 
M688.000000,789.500000 
	C688.000000,800.593262 688.000000,811.686523 688.000000,822.692993 
	C698.996582,822.692993 709.396851,822.692993 719.703247,822.692993 
	C719.703247,767.333496 719.703247,712.281494 719.703247,657.306885 
	C709.003540,657.306885 698.603271,657.306885 688.000000,657.306885 
	C688.000000,701.242310 688.000000,744.871155 688.000000,789.500000 
M773.000000,905.499878 
	C773.000000,912.266113 773.000000,919.032349 773.000000,925.687073 
	C777.338867,925.687073 781.075439,925.687073 785.001709,925.687073 
	C785.001709,913.773071 785.001709,902.170410 785.001709,890.465942 
	C785.452942,890.693726 785.846436,890.758179 785.927063,890.952515 
	C788.638000,897.485352 791.553162,903.945984 793.957458,910.591248 
	C799.585571,926.146423 799.485596,926.185059 811.760315,925.942871 
	C812.046143,925.937317 812.327393,925.699646 812.774780,925.495239 
	C812.774780,904.834778 812.774780,884.101379 812.774780,863.237793 
	C808.811951,863.237793 805.077454,863.237793 800.925537,863.237793 
	C800.925537,873.115784 800.925537,882.765869 800.925537,893.719543 
	C796.596313,883.643982 792.864990,874.808411 788.960999,866.049805 
	C788.421204,864.838745 787.088501,863.225281 786.016602,863.140442 
	C781.774536,862.804382 777.490234,863.002319 773.000000,863.002319 
	C773.000000,877.220093 773.000000,890.859985 773.000000,905.499878 
M1130.917725,878.620544 
	C1130.143799,880.701233 1129.266602,882.750061 1128.612671,884.867859 
	C1124.580322,897.925842 1128.210693,913.603394 1139.462158,921.991821 
	C1148.788086,928.944580 1164.828979,927.350281 1171.882446,917.422546 
	C1178.747681,907.759705 1180.854126,897.033386 1177.926270,885.613098 
	C1174.680298,872.951965 1166.503052,865.864014 1156.067627,864.154907 
	C1147.111206,862.687927 1136.000366,867.744568 1130.917725,878.620544 
M905.046204,867.425476 
	C904.470581,867.705261 903.815125,867.886597 903.330872,868.279114 
	C887.416382,881.179199 886.936890,908.073120 902.757507,921.095398 
	C912.650330,929.238464 928.326843,927.559082 936.535583,916.150208 
	C943.833069,906.007935 944.723511,894.939087 941.700745,883.675049 
	C937.118591,866.599792 919.351440,858.948120 905.046204,867.425476 
M648.000000,917.456604 
	C648.000000,920.226746 648.000000,922.996887 648.000000,925.711060 
	C652.300110,925.711060 656.033447,925.711060 660.164246,925.711060 
	C660.164246,916.029846 660.164246,906.631836 660.164246,897.292236 
	C666.975952,897.292236 673.372375,897.292236 680.169312,897.292236 
	C680.169312,906.978638 680.169312,916.379089 680.169312,925.701416 
	C684.319336,925.701416 688.052979,925.701416 691.723022,925.701416 
	C691.723022,904.687378 691.723022,883.973022 691.723022,863.285767 
	C687.706909,863.285767 683.973877,863.285767 679.837646,863.285767 
	C679.837646,870.299744 679.837646,877.033752 679.837646,883.706543 
	C673.021423,883.706543 666.624878,883.706543 659.823853,883.706543 
	C659.823853,876.682312 659.823853,869.946228 659.823853,863.304321 
	C655.670593,863.304321 651.937256,863.304321 648.000000,863.304321 
	C648.000000,881.226929 648.000000,898.846069 648.000000,917.456604 
M1493.506226,915.000000 
	C1489.739502,915.000000 1485.972656,915.000000 1482.306641,915.000000 
	C1482.306641,909.003479 1482.306641,903.603577 1482.306641,897.793701 
	C1490.681396,897.793701 1498.756104,897.793701 1506.674805,897.793701 
	C1506.674805,893.634705 1506.674805,889.899597 1506.674805,885.763428 
	C1498.276245,885.763428 1490.197510,885.763428 1482.342773,885.763428 
	C1482.342773,882.606262 1482.342773,879.870239 1482.342773,876.731567 
	C1490.421631,876.731567 1498.162231,876.731567 1505.640137,876.731567 
	C1505.640137,872.567688 1505.640137,868.831970 1505.640137,864.555298 
	C1493.281250,864.555298 1481.277466,864.555298 1469.277466,864.561523 
	C1469.277466,885.285339 1469.277466,906.009155 1469.277466,926.719849 
	C1481.621216,926.719849 1493.685425,926.719849 1505.707764,926.719849 
	C1505.707764,922.698059 1505.707764,918.962952 1505.707764,915.000000 
	C1501.776367,915.000000 1498.135010,915.000000 1493.506226,915.000000 
M414.000000,908.498413 
	C414.000000,913.922424 414.000000,919.346436 414.000000,924.716187 
	C426.309631,924.716187 438.033783,924.716187 449.707458,924.716187 
	C449.707458,920.692993 449.707458,916.960022 449.707458,912.826904 
	C441.687469,912.826904 433.952698,912.826904 426.298767,912.826904 
	C426.298767,907.011108 426.298767,901.615601 426.298767,895.816956 
	C434.992950,895.816956 443.394714,895.816956 451.694275,895.816956 
	C451.694275,891.667480 451.694275,887.934326 451.694275,883.808289 
	C442.989471,883.808289 434.584015,883.808289 426.311523,883.808289 
	C426.311523,880.660095 426.311523,877.926880 426.311523,874.796387 
	C434.352997,874.796387 442.088470,874.796387 449.681213,874.796387 
	C449.681213,870.640320 449.681213,866.907410 449.681213,863.312500 
	C437.637451,863.312500 425.914612,863.312500 414.000000,863.312500 
	C414.000000,878.248962 414.000000,892.873901 414.000000,908.498413 
M1273.346069,877.166016 
	C1279.783691,877.166016 1286.221436,877.166016 1292.755127,877.166016 
	C1292.755127,872.460449 1292.755127,868.394775 1292.755127,864.001648 
	C1286.722778,864.001648 1280.828979,863.316406 1275.156494,864.145264 
	C1263.574707,865.837463 1256.650391,871.371399 1255.149048,882.072571 
	C1253.788208,891.770874 1255.884644,901.020813 1260.867310,909.781433 
	C1267.513794,921.467529 1283.150269,929.519104 1295.670898,926.376709 
	C1295.670898,913.604919 1295.670898,900.875122 1295.670898,888.342163 
	C1291.598389,888.342163 1287.864746,888.342163 1283.758789,888.342163 
	C1283.758789,896.728943 1283.758789,904.776306 1283.758789,912.929443 
	C1271.300293,908.992493 1266.240479,893.888672 1267.095215,885.596863 
	C1267.448608,882.169250 1268.911621,878.959778 1273.346069,877.166016 
M543.451050,879.032471 
	C546.091492,878.021667 548.682983,876.332581 551.382324,876.137634 
	C557.460754,875.698730 563.592590,876.000000 569.731689,876.000000 
	C569.731689,871.416565 569.731689,867.347961 569.731689,863.000732 
	C562.830261,863.000732 556.150208,862.521973 549.566833,863.115540 
	C540.264832,863.954346 530.728882,868.844971 528.731140,881.063416 
	C527.535461,888.375854 528.737488,894.957764 531.076477,901.476135 
	C536.953308,917.854309 552.617493,928.766907 569.675049,925.395020 
	C569.675049,921.291199 569.675049,917.219116 569.675049,912.764771 
	C560.819641,914.127136 553.588135,911.976013 547.665039,905.290039 
	C541.960144,898.850464 538.403748,885.077209 543.451050,879.032471 
M1592.056641,893.566895 
	C1596.186890,897.027527 1600.637939,900.187744 1604.293213,904.092896 
	C1605.805908,905.709229 1606.811279,909.596130 1605.888306,911.231873 
	C1604.792725,913.173462 1601.466064,914.494873 1598.935181,914.843567 
	C1594.756348,915.419434 1590.440308,915.000000 1586.318359,915.000000 
	C1586.318359,919.358154 1586.318359,923.091614 1586.318359,926.761047 
	C1586.952637,926.872314 1587.269653,926.975525 1587.586914,926.976501 
	C1592.745972,926.992004 1597.905029,927.022400 1603.063965,926.992981 
	C1609.475342,926.956421 1615.867798,922.495789 1617.983276,916.432373 
	C1620.917114,908.023438 1618.563843,900.551697 1612.745483,894.434387 
	C1607.688232,889.117432 1601.823853,884.568237 1595.162231,878.655518 
	C1598.225464,877.960693 1600.321899,877.271057 1602.465820,877.055481 
	C1604.872925,876.813538 1607.323242,877.000000 1609.710205,877.000000 
	C1609.710205,872.697754 1609.710205,868.963623 1609.710205,865.000671 
	C1605.119751,865.000671 1600.796753,864.749756 1596.514038,865.058533 
	C1589.827148,865.540649 1583.894043,871.004456 1583.825928,878.425903 
	C1583.765015,885.066895 1587.292480,889.071777 1592.056641,893.566895 
M325.070801,875.768982 
	C329.250336,875.375671 333.429871,874.982361 337.779144,874.573120 
	C337.779144,870.840820 337.779144,867.109375 337.779144,863.217407 
	C325.499908,863.217407 313.442047,863.217407 301.223938,863.217407 
	C301.223938,867.168823 301.223938,870.901062 301.223938,875.048096 
	C305.173676,875.048096 308.920685,875.048096 313.043457,875.048096 
	C313.043457,891.850342 313.043457,908.240906 313.043457,924.770569 
	C317.177582,924.770569 320.908691,924.770569 325.006195,924.770569 
	C325.006195,908.605896 325.006195,892.668091 325.070801,875.768982 
M1022.000000,895.366333 
	C1021.541687,905.507812 1021.083374,915.649292 1020.629272,925.697144 
	C1032.695801,925.697144 1043.747803,925.697144 1054.691650,925.697144 
	C1054.691650,921.657532 1054.691650,917.926697 1054.691650,913.800903 
	C1047.658447,913.800903 1040.928101,913.800903 1033.835693,913.800903 
	C1033.835693,897.017578 1033.835693,880.640442 1033.835693,864.276611 
	C1029.719727,864.276611 1025.989624,864.276611 1022.000000,864.276611 
	C1022.000000,874.498657 1022.000000,884.446228 1022.000000,895.366333 
M1388.265381,864.075684 
	C1384.312378,864.075684 1380.359375,864.075684 1376.208618,864.075684 
	C1376.208618,885.128784 1376.208618,905.852783 1376.208618,926.788452 
	C1380.464966,926.788452 1384.530518,926.788452 1388.929688,926.788452 
	C1388.929688,905.979126 1388.929688,885.374939 1388.265381,864.075684 
z"/>
<path fill="#100C07" opacity="1.000000" stroke="none" 
	d="
M1218.859619,228.973907 
	C1225.733398,215.324188 1232.530151,201.634979 1239.499268,188.034103 
	C1249.779053,167.972565 1260.179810,147.972946 1270.532349,127.948669 
	C1279.402344,110.792213 1288.246216,93.622101 1297.178955,76.498413 
	C1298.731689,73.521820 1300.668213,70.745338 1302.823608,67.230209 
	C1306.209961,73.122543 1309.336426,78.430321 1312.337891,83.807846 
	C1326.917480,109.929237 1341.417969,136.094894 1356.035767,162.194855 
	C1368.221924,183.953278 1380.526978,205.645172 1392.788452,227.361511 
	C1407.181030,252.852127 1421.636963,278.307190 1435.964600,303.834259 
	C1447.614990,324.591278 1459.039795,345.474884 1470.703125,366.224548 
	C1485.048584,391.745575 1499.603516,417.148987 1513.942627,442.673676 
	C1523.864746,460.335693 1533.473633,478.173706 1543.404541,495.830811 
	C1556.100708,518.404785 1569.059692,540.830994 1581.752441,563.406982 
	C1590.339966,578.681152 1598.662964,594.104065 1607.105469,609.459717 
	C1608.728760,612.412354 1610.358276,615.361633 1611.609009,618.748230 
	C1611.045654,619.279724 1610.858398,619.375305 1610.398804,619.382080 
	C1609.781616,619.129883 1609.436646,618.966553 1609.103394,618.448975 
	C1608.222900,616.740906 1607.532349,615.181580 1606.401245,614.071106 
	C1602.843872,610.579041 1599.010864,607.366211 1595.478271,603.850647 
	C1517.520874,526.269104 1439.562988,448.687958 1361.663330,371.048401 
	C1315.388794,324.928345 1269.216064,278.706207 1222.981934,232.545532 
	C1221.698486,231.264114 1220.237793,230.160431 1218.859619,228.973907 
z"/>
<path fill="#004041" opacity="1.000000" stroke="none" 
	d="
M1218.531982,229.101028 
	C1220.237793,230.160431 1221.698486,231.264114 1222.981934,232.545532 
	C1269.216064,278.706207 1315.388794,324.928345 1361.663330,371.048401 
	C1439.562988,448.687958 1517.520874,526.269104 1595.478271,603.850647 
	C1599.010864,607.366211 1602.843872,610.579041 1606.401245,614.071106 
	C1607.532349,615.181580 1608.222900,616.740906 1608.715332,618.553711 
	C1607.266357,618.872009 1606.217041,618.731323 1605.125977,618.260864 
	C1604.217407,617.022949 1603.505615,615.840149 1602.459473,615.249878 
	C1593.201294,610.026672 1583.878540,604.917969 1574.584839,599.757568 
	C1547.720825,584.841309 1520.870850,569.899963 1493.996948,555.001648 
	C1477.434692,545.819885 1460.817627,536.737183 1444.262939,527.541870 
	C1418.564575,513.267639 1392.916748,498.902039 1367.212524,484.638336 
	C1347.313110,473.595825 1327.340698,462.685059 1307.435791,451.652405 
	C1280.851685,436.917572 1254.296021,422.131409 1227.738647,407.348053 
	C1211.051025,398.058655 1194.436768,388.635712 1177.685547,379.462708 
	C1167.943726,374.128143 1157.996216,369.169067 1148.141357,364.041016 
	C1162.744263,336.118195 1177.406982,308.226379 1191.927368,280.260681 
	C1200.375977,263.989014 1208.593872,247.597702 1216.927856,231.266464 
	C1217.290771,230.555099 1217.776123,229.906158 1218.531982,229.101028 
z"/>
<path fill="#02AAAA" opacity="1.000000" stroke="none" 
	d="
M1605.167847,618.590698 
	C1606.217041,618.731323 1607.266357,618.872009 1608.703613,618.907898 
	C1609.436646,618.966553 1609.781616,619.129883 1610.635132,619.588501 
	C1611.559326,619.946777 1611.975098,620.009827 1612.390747,620.072754 
	C1611.279785,620.384583 1610.169067,620.968689 1609.058105,620.969360 
	C1539.230957,621.009888 1469.403687,621.001099 1399.576538,621.000366 
	C1273.420898,620.999084 1147.265381,621.000000 1021.109741,621.000000 
	C1019.277893,621.000000 1017.445984,621.000000 1014.768860,621.000000 
	C1032.555542,586.650940 1050.130859,552.709839 1068.337646,518.427856 
	C1070.297363,518.110962 1071.660034,517.949036 1072.948730,518.187561 
	C1088.894043,521.138428 1104.833008,524.123718 1120.764893,527.146729 
	C1161.249878,534.828613 1201.735107,542.508240 1242.210693,550.239746 
	C1265.942627,554.772949 1289.645386,559.459290 1313.380249,563.976929 
	C1344.105957,569.825256 1374.857788,575.535950 1405.584839,581.377686 
	C1430.947510,586.199646 1456.281006,591.174744 1481.644287,595.992981 
	C1510.583252,601.490479 1539.540894,606.890320 1568.490723,612.330811 
	C1580.024658,614.498352 1591.559570,616.661133 1603.444824,618.842529 
	C1604.253174,618.769470 1604.710449,618.680054 1605.167847,618.590698 
z"/>
<path fill="#FE5B04" opacity="1.000000" stroke="none" 
	d="
M859.166626,375.000793 
	C857.107788,367.852234 854.636475,360.791901 853.084229,353.534973 
	C850.580200,341.828491 849.578430,330.091553 850.751953,317.937408 
	C852.312561,301.773865 856.510559,286.647278 863.975647,272.384735 
	C872.758484,255.604477 884.814880,241.768265 900.409607,230.728455 
	C915.576294,219.991684 932.139954,212.853226 950.304504,210.199860 
	C972.845398,206.907272 995.020691,208.854568 1016.309204,217.989899 
	C1032.701050,225.023956 1046.838623,235.082870 1058.717407,248.274109 
	C1073.401245,264.580322 1082.550537,283.723816 1086.981201,305.164459 
	C1087.113647,305.805206 1087.014160,306.493988 1087.010864,307.929260 
	C1083.627563,313.773712 1080.256104,318.849274 1076.587402,324.082520 
	C1068.036255,335.855042 1059.765259,347.457550 1051.532715,359.087280 
	C1036.691650,380.052704 1021.873718,401.034424 1006.770569,422.203766 
	C1000.654114,430.334259 994.813171,438.270325 988.972168,446.206360 
	C984.788025,446.462952 980.603821,446.719574 976.081604,446.586121 
	C982.217285,436.872955 988.691040,427.549927 995.442993,418.033417 
	C1019.279358,384.688019 1042.837646,351.536072 1066.622925,318.064575 
	C1051.237305,309.518066 1036.375244,301.262451 1021.335266,292.907959 
	C987.054443,326.377594 952.976624,359.649048 918.591919,393.051208 
	C909.532593,401.533875 900.780090,409.885803 892.027649,418.237732 
	C890.039368,416.674103 888.051086,415.110443 886.004761,412.910645 
	C893.591309,404.728851 901.235901,397.183167 909.271790,389.251251 
	C894.309143,384.366821 879.998047,379.615234 865.614746,375.093292 
	C863.649902,374.475555 861.324890,375.003357 859.166626,375.000793 
z"/>
<path fill="#046068" opacity="1.000000" stroke="none" 
	d="
M1605.125977,618.260864 
	C1604.710449,618.680054 1604.253174,618.769470 1603.339722,618.505493 
	C1599.677612,616.966492 1596.504395,615.681702 1593.260376,614.610901 
	C1567.083374,605.969910 1540.887451,597.386292 1514.708252,588.751831 
	C1482.071533,577.987488 1449.450928,567.173889 1416.812622,556.414612 
	C1391.736206,548.148132 1366.638428,539.947021 1341.558594,531.691162 
	C1309.388916,521.101562 1277.222290,510.503357 1245.064575,499.877380 
	C1209.111206,487.997131 1173.181641,476.044800 1137.215820,464.202515 
	C1125.562866,460.365631 1113.828247,456.777008 1102.130981,453.074829 
	C1114.021118,430.216797 1125.928833,407.367920 1137.790161,384.494995 
	C1141.197144,377.925201 1144.469971,371.285797 1147.972900,364.359650 
	C1157.996216,369.169067 1167.943726,374.128143 1177.685547,379.462708 
	C1194.436768,388.635712 1211.051025,398.058655 1227.738647,407.348053 
	C1254.296021,422.131409 1280.851685,436.917572 1307.435791,451.652405 
	C1327.340698,462.685059 1347.313110,473.595825 1367.212524,484.638336 
	C1392.916748,498.902039 1418.564575,513.267639 1444.262939,527.541870 
	C1460.817627,536.737183 1477.434692,545.819885 1493.996948,555.001648 
	C1520.870850,569.899963 1547.720825,584.841309 1574.584839,599.757568 
	C1583.878540,604.917969 1593.201294,610.026672 1602.459473,615.249878 
	C1603.505615,615.840149 1604.217407,617.022949 1605.125977,618.260864 
z"/>
<path fill="#02AAAA" opacity="1.000000" stroke="none" 
	d="
M825.035645,472.134186 
	C817.561829,479.393982 810.067810,486.633087 802.618347,493.917694 
	C786.218628,509.954346 769.857422,526.030457 753.449585,542.058716 
	C741.689148,553.547119 729.876282,564.981812 718.090637,576.444458 
	C705.588623,588.603882 693.064392,600.740784 680.604004,612.942749 
	C675.060730,618.371155 669.218811,621.329895 660.745789,621.247192 
	C609.772278,620.749146 558.791443,620.999817 507.142578,620.999817 
	C508.033234,619.862549 508.495087,618.876465 509.268982,618.342407 
	C529.754761,604.206055 550.275146,590.119629 570.784912,576.017822 
	C598.126526,557.218689 625.495667,538.459045 652.792664,519.595276 
	C670.737000,507.194794 688.549438,494.603668 706.469360,482.167725 
	C719.020020,473.457886 731.652405,464.865845 744.991943,456.104553 
	C765.830688,459.825378 785.940796,463.586517 806.012207,467.544586 
	C812.406433,468.805481 818.697388,470.589539 825.035645,472.134186 
z"/>
<path fill="#02A9AA" opacity="1.000000" stroke="none" 
	d="
M941.029785,495.133301 
	C933.151550,506.468781 925.344116,517.854370 917.377136,529.127197 
	C907.429199,543.202881 897.313782,557.160156 887.336792,571.215454 
	C876.142212,586.985901 865.064575,602.839600 853.786377,618.549622 
	C852.892334,619.794861 850.832642,620.895752 849.312439,620.898682 
	C794.519714,621.004639 739.726746,620.972046 684.933777,620.947510 
	C684.819824,620.947510 684.705933,620.783325 683.933228,620.189697 
	C688.249023,616.329529 692.622803,612.713135 696.661987,608.755310 
	C718.391479,587.463501 740.019348,566.068115 761.719177,544.745911 
	C777.241882,529.493347 792.796875,514.273376 808.387329,499.090027 
	C817.294189,490.415863 826.300720,481.844116 835.967712,473.161560 
	C849.488281,475.582275 862.295288,478.110840 875.120605,480.542725 
	C893.793884,484.083496 912.501587,487.447784 931.141968,491.152374 
	C934.566406,491.832916 937.740295,493.774048 941.029785,495.133301 
z"/>
<path fill="#02AAAA" opacity="1.000000" stroke="none" 
	d="
M361.000000,621.000000 
	C351.549164,621.000000 342.598328,621.000000 332.282623,621.000000 
	C334.471893,619.542786 335.529297,618.674561 336.720612,618.070435 
	C356.653168,607.962769 376.636902,597.955566 396.538818,587.788086 
	C418.615723,576.509460 440.621338,565.091248 462.658020,553.733826 
	C484.694702,542.376282 506.727966,531.012085 528.769043,519.663025 
	C551.389465,508.015686 574.020935,496.389618 596.641357,484.742279 
	C618.682434,473.393219 640.718750,462.034851 662.746216,450.659332 
	C664.331299,449.840759 665.986328,449.038696 667.337158,447.905212 
	C675.473206,441.078125 684.539001,443.553436 693.475769,445.246277 
	C704.817749,447.394745 716.125000,449.726990 727.440796,452.011993 
	C729.284119,452.384155 731.094116,452.921539 734.058472,453.670258 
	C726.004456,459.131042 718.802246,463.985901 711.628906,468.882874 
	C680.301086,490.269043 648.967407,511.646606 617.664612,533.069336 
	C599.248901,545.672546 580.900452,558.373901 562.498047,570.996521 
	C539.269043,586.929749 516.052673,602.882141 492.711487,618.649597 
	C490.580170,620.089355 487.584961,620.894531 484.987274,620.903198 
	C443.825195,621.040894 402.662537,621.000000 361.000000,621.000000 
z"/>
<path fill="#008083" opacity="1.000000" stroke="none" 
	d="
M1101.959229,453.388458 
	C1113.828247,456.777008 1125.562866,460.365631 1137.215820,464.202515 
	C1173.181641,476.044800 1209.111206,487.997131 1245.064575,499.877380 
	C1277.222290,510.503357 1309.388916,521.101562 1341.558594,531.691162 
	C1366.638428,539.947021 1391.736206,548.148132 1416.812622,556.414612 
	C1449.450928,567.173889 1482.071533,577.987488 1514.708252,588.751831 
	C1540.887451,597.386292 1567.083374,605.969910 1593.260376,614.610901 
	C1596.504395,615.681702 1599.677612,616.966492 1602.988770,618.489136 
	C1591.559570,616.661133 1580.024658,614.498352 1568.490723,612.330811 
	C1539.540894,606.890320 1510.583252,601.490479 1481.644287,595.992981 
	C1456.281006,591.174744 1430.947510,586.199646 1405.584839,581.377686 
	C1374.857788,575.535950 1344.105957,569.825256 1313.380249,563.976929 
	C1289.645386,559.459290 1265.942627,554.772949 1242.210693,550.239746 
	C1201.735107,542.508240 1161.249878,534.828613 1120.764893,527.146729 
	C1104.833008,524.123718 1088.894043,521.138428 1072.948730,518.187561 
	C1071.660034,517.949036 1070.297363,518.110962 1068.542969,518.140625 
	C1076.676270,501.633972 1085.215454,485.063080 1093.807129,468.519379 
	C1096.392334,463.541382 1099.123291,458.639038 1101.959229,453.388458 
z"/>
<path fill="#02A9A9" opacity="1.000000" stroke="none" 
	d="
M1056.030029,516.141602 
	C1051.717896,524.663208 1047.479980,533.223389 1043.072266,541.695251 
	C1039.032104,549.460693 1034.738281,557.093994 1030.680664,564.850708 
	C1022.404114,580.672485 1014.227356,596.546387 1005.966492,612.376465 
	C1004.764221,614.680298 1003.499023,616.994934 1001.919861,619.039429 
	C1001.167603,620.013428 999.610291,620.915955 998.415710,620.918518 
	C954.144409,621.013000 909.872803,620.998108 864.879883,620.998108 
	C878.867004,601.442932 892.559082,582.378723 906.164795,563.253113 
	C916.802185,548.300110 927.349121,533.282654 937.903076,518.270386 
	C943.027893,510.980774 948.076721,503.637726 953.903931,496.165039 
	C961.482239,497.196533 968.330139,498.309082 975.148376,499.580750 
	C995.460999,503.369354 1015.782471,507.115936 1036.055786,511.106140 
	C1042.783569,512.430359 1049.375854,514.443481 1056.030029,516.141602 
z"/>
<path fill="#16232B" opacity="1.000000" stroke="none" 
	d="
M806.728638,779.323364 
	C798.534668,759.885742 790.569397,740.771423 782.228699,720.756226 
	C782.228699,755.211975 782.228699,788.792725 782.228699,822.685974 
	C771.743530,822.685974 761.674988,822.685974 751.301819,822.685974 
	C751.301819,767.721619 751.301819,712.662598 751.301819,657.011841 
	C763.638367,657.011841 776.067078,656.912842 788.488281,657.172363 
	C789.666809,657.197021 791.274353,659.269226 791.881226,660.725037 
	C803.107117,687.653137 814.210999,714.632141 825.917236,741.444092 
	C825.917236,713.532166 825.917236,685.620300 825.917236,657.354492 
	C836.172424,657.354492 846.242737,657.354492 856.657715,657.354492 
	C856.657715,712.196960 856.657715,767.256226 856.657715,822.990356 
	C846.790283,822.990356 836.703308,823.088501 826.624329,822.850952 
	C825.518372,822.824890 823.987915,821.068726 823.448669,819.782104 
	C817.857971,806.442871 812.430359,793.035339 806.728638,779.323364 
z"/>
<path fill="#16232B" opacity="1.000000" stroke="none" 
	d="
M1175.999756,784.997803 
	C1182.926392,797.904236 1189.809937,810.432190 1197.260498,823.992004 
	C1184.767090,823.992004 1173.688354,824.101624 1162.618286,823.841736 
	C1161.353027,823.812012 1159.726074,821.938782 1158.960693,820.540527 
	C1151.444336,806.811584 1144.086548,792.995911 1136.649292,779.223511 
	C1135.733154,777.527100 1134.616089,775.939209 1133.548096,774.230591 
	C1131.727905,775.146301 1129.981079,776.546082 1128.040894,776.906860 
	C1121.308594,778.158630 1120.679565,782.517883 1120.880737,788.336731 
	C1121.282837,799.977661 1121.000000,811.642334 1121.000000,823.648438 
	C1110.822754,823.648438 1100.753906,823.648438 1090.341309,823.648438 
	C1090.341309,768.474854 1090.341309,713.089355 1090.341309,657.611389 
	C1097.480225,657.611389 1104.842651,657.590576 1112.204834,657.629028 
	C1113.675415,657.636658 1115.144653,657.977234 1116.615112,657.982605 
	C1125.944214,658.016785 1135.290405,658.362488 1144.599609,657.929626 
	C1169.127441,656.789185 1189.365967,679.160217 1189.124634,702.363708 
	C1188.955078,718.658081 1182.045898,731.717773 1171.871826,743.555908 
	C1168.172363,747.860474 1164.051392,751.802917 1160.083862,755.951355 
	C1165.340820,765.445740 1170.648926,775.032471 1175.999756,784.997803 
M1150.494263,719.010315 
	C1152.362793,715.819275 1154.479126,712.745178 1156.050903,709.414124 
	C1159.921265,701.212219 1156.282593,691.987732 1147.374146,690.249207 
	C1138.934326,688.602112 1130.086914,689.043274 1121.198730,688.553894 
	C1121.198730,707.451294 1121.198730,725.466431 1121.198730,743.910767 
	C1132.935181,737.903015 1142.161377,729.552246 1150.494263,719.010315 
z"/>
<path fill="#16232B" opacity="1.000000" stroke="none" 
	d="
M1346.980957,728.397400 
	C1346.331665,740.354919 1346.581299,751.993713 1344.770752,763.302673 
	C1342.468506,777.682373 1335.922485,790.483521 1326.067017,801.465881 
	C1316.341064,812.304016 1304.765625,820.071045 1290.369385,822.944885 
	C1273.031372,826.405945 1257.101318,822.557922 1242.857300,812.284607 
	C1226.103638,800.201111 1216.277954,783.287476 1212.174438,763.477722 
	C1206.550415,736.327637 1209.834229,710.297424 1226.050049,686.964844 
	C1236.080933,672.531616 1249.750488,662.570374 1266.994751,659.227661 
	C1287.612549,655.231018 1305.951050,661.287354 1321.198486,675.767151 
	C1335.488892,689.338135 1343.490967,706.184753 1346.048706,725.679138 
	C1346.150757,726.456787 1346.650513,727.182373 1346.980957,728.397400 
M1315.060181,749.666931 
	C1315.372803,748.751526 1315.906372,747.849976 1315.964844,746.918579 
	C1316.965942,730.963928 1313.405518,716.127808 1303.616333,703.392151 
	C1297.850464,695.890991 1290.118408,690.445007 1280.184448,690.078308 
	C1266.322144,689.566711 1256.866333,697.275818 1250.342651,708.460449 
	C1243.292480,720.547729 1240.076050,733.625916 1241.862915,747.955566 
	C1243.611328,761.977356 1248.077637,774.485352 1258.699341,784.067749 
	C1266.317505,790.940613 1275.223633,793.951233 1285.662109,791.127625 
	C1302.496826,786.573792 1313.599976,766.336609 1315.060181,749.666931 
z"/>
<path fill="#16232B" opacity="1.000000" stroke="none" 
	d="
M1502.000000,735.127930 
	C1503.051025,754.587646 1499.624023,772.661682 1489.916992,789.093323 
	C1476.110962,812.463684 1454.185913,826.980103 1425.863770,823.819214 
	C1409.929199,822.040955 1396.973145,813.931213 1386.102051,801.842407 
	C1373.895874,788.269043 1367.016602,772.282166 1365.311279,754.737671 
	C1362.809570,729.002563 1366.722656,704.442322 1383.947021,683.332947 
	C1394.267822,670.684570 1406.962158,662.178406 1422.724243,659.324829 
	C1440.761108,656.059326 1457.256348,660.821655 1471.792480,672.251038 
	C1488.334229,685.257202 1496.282837,703.143616 1500.887573,722.916931 
	C1501.770142,726.706665 1501.654907,730.728760 1502.000000,735.127930 
M1447.233887,694.027039 
	C1431.078247,685.440857 1418.776245,691.540039 1409.870239,702.082825 
	C1398.472534,715.574951 1394.250122,731.811218 1396.854248,749.809570 
	C1398.761108,762.988281 1403.477051,774.327087 1413.104858,783.669434 
	C1425.728149,795.918457 1441.431519,795.307068 1453.678711,783.586365 
	C1467.899414,769.976929 1472.427246,752.729614 1470.084106,733.286194 
	C1468.129883,717.070129 1461.255615,703.959900 1447.233887,694.027039 
z"/>
<path fill="#16232B" opacity="1.000000" stroke="none" 
	d="
M330.273743,747.355835 
	C334.832855,730.992554 339.135040,714.976624 343.507782,698.980103 
	C347.405945,684.719604 351.382141,670.480347 355.351105,656.133423 
	C369.420013,656.133423 383.391113,656.133423 397.607178,656.133423 
	C412.581848,711.531677 427.559601,766.941345 442.712006,822.997131 
	C431.865631,822.997131 421.899445,823.084900 411.940186,822.861938 
	C410.938507,822.839478 409.443359,821.093201 409.085968,819.879333 
	C406.585297,811.386658 404.445557,802.786438 401.862549,794.320679 
	C401.446808,792.958130 399.409454,791.161316 398.099152,791.142578 
	C382.615814,790.921265 367.128174,791.000183 351.523407,791.000183 
	C348.597656,801.653320 345.710815,812.164734 342.782196,822.828186 
	C331.959137,822.828186 321.166443,822.828186 309.717621,822.828186 
	C312.106628,814.250793 314.477142,805.966248 316.718018,797.646729 
	C321.198730,781.011841 325.608429,764.357788 330.273743,747.355835 
M377.582825,704.070496 
	C377.266144,702.835754 376.949463,701.601013 376.359222,699.299622 
	C370.782318,719.682068 365.457458,739.143311 360.100464,758.722107 
	C370.779358,758.722107 381.321442,758.722107 392.211304,758.722107 
	C390.052338,750.454712 388.002991,742.526184 385.909088,734.609436 
	C383.279480,724.667297 380.613342,714.734863 377.582825,704.070496 
z"/>
<path fill="#16232B" opacity="1.000000" stroke="none" 
	d="
M971.990784,689.000000 
	C954.517578,689.000000 937.543274,689.000000 920.285034,689.000000 
	C920.285034,697.317444 920.285034,705.386719 920.285034,713.884827 
	C942.681213,713.884827 965.085632,713.884827 987.743164,713.884827 
	C987.743164,724.709717 987.743164,735.111511 987.743164,745.941040 
	C965.262024,745.941040 942.857422,745.941040 920.228699,745.941040 
	C920.228699,761.434326 920.228699,776.502319 920.228699,791.996826 
	C941.461121,791.996826 962.532471,791.996826 983.799194,791.996826 
	C983.799194,802.703552 983.799194,812.988098 983.799194,823.343262 
	C952.102539,823.343262 920.307251,823.343262 888.255432,823.343262 
	C888.255432,767.620361 888.255432,712.553711 888.255432,657.599792 
	C920.355286,657.599792 952.365967,657.599792 984.687622,657.599792 
	C984.687622,668.261292 984.687622,678.331238 984.687622,689.000000 
	C980.692444,689.000000 976.591064,689.000000 971.990784,689.000000 
z"/>
<path fill="#004041" opacity="1.000000" stroke="none" 
	d="
M1076.884766,323.924835 
	C1080.256104,318.849274 1083.627563,313.773712 1087.083008,308.349182 
	C1107.654053,279.278290 1128.161011,250.570511 1148.618652,221.827652 
	C1156.790527,210.346161 1164.990356,198.879471 1172.869873,187.198654 
	C1174.838989,184.279648 1176.064453,184.533539 1178.132080,186.608490 
	C1188.832275,197.346359 1199.603149,208.014542 1210.194092,218.858795 
	C1211.097290,219.783585 1211.590576,222.187622 1211.040039,223.285736 
	C1205.756714,233.825912 1200.238647,244.249283 1194.728760,254.674942 
	C1181.516479,279.675018 1168.266602,304.655273 1155.044067,329.649902 
	C1149.911621,339.351837 1144.811890,349.071075 1139.223511,358.623169 
	C1138.402710,358.111938 1138.114990,357.652344 1137.700073,357.423431 
	C1117.435181,346.244751 1097.159302,335.085938 1076.884766,323.924835 
z"/>
<path fill="#16232B" opacity="1.000000" stroke="none" 
	d="
M586.986084,823.000000 
	C580.514771,823.000000 574.540161,823.000000 568.283813,823.000000 
	C568.283813,767.679199 568.283813,712.614075 568.283813,657.211731 
	C569.695862,657.142090 571.136902,657.010498 572.578003,657.009277 
	C589.243164,656.994812 605.915588,657.310364 622.571655,656.920471 
	C642.843262,656.446045 661.670044,672.214111 665.997070,691.770081 
	C669.755310,708.755737 664.544678,723.636475 654.458008,736.911438 
	C640.420227,755.386169 622.447021,769.002380 601.079773,778.181885 
	C599.914490,778.682495 599.109253,781.324158 599.089111,782.980774 
	C598.929016,796.122375 599.000000,809.266785 599.000000,823.000000 
	C595.022156,823.000000 591.252441,823.000000 586.986084,823.000000 
M621.502686,725.997925 
	C627.513489,720.546448 632.304626,714.224915 634.974915,706.494629 
	C637.510559,699.154053 632.601929,690.146423 624.846069,689.137634 
	C616.428162,688.042603 607.867615,688.044434 599.424622,687.571106 
	C599.424622,706.627869 599.424622,724.763306 599.424622,744.699524 
	C607.374329,737.993591 614.187317,732.246582 621.502686,725.997925 
z"/>
<path fill="#046068" opacity="1.000000" stroke="none" 
	d="
M1076.587402,324.082520 
	C1097.159302,335.085938 1117.435181,346.244751 1137.700073,357.423431 
	C1138.114990,357.652344 1138.402710,358.111938 1138.897217,358.781555 
	C1135.043457,367.020233 1131.115112,374.978973 1127.023315,382.852875 
	C1121.654541,393.184174 1116.153442,403.446564 1110.716187,413.742279 
	C1104.370728,425.757812 1098.032837,437.777252 1091.209961,449.628845 
	C1089.437744,448.793335 1088.210205,447.932648 1086.847046,447.482910 
	C1061.869507,439.241882 1036.879639,431.038147 1011.875977,422.876923 
	C1010.335754,422.374176 1008.659241,422.288879 1007.046143,422.009338 
	C1021.873718,401.034424 1036.691650,380.052704 1051.532715,359.087280 
	C1059.765259,347.457550 1068.036255,335.855042 1076.587402,324.082520 
z"/>
<path fill="#008083" opacity="1.000000" stroke="none" 
	d="
M941.347534,494.981201 
	C937.740295,493.774048 934.566406,491.832916 931.141968,491.152374 
	C912.501587,487.447784 893.793884,484.083496 875.120605,480.542725 
	C862.295288,478.110840 849.488281,475.582275 836.272095,473.032928 
	C848.720642,460.332733 861.532837,447.658295 874.436829,435.077972 
	C880.097961,429.558868 885.946411,424.231873 891.868713,418.527710 
	C900.780090,409.885803 909.532593,401.533875 919.000916,393.074310 
	C921.161316,393.273590 922.648438,393.450165 924.043884,393.906891 
	C946.194092,401.156342 968.338623,408.423065 990.461121,415.756439 
	C992.119751,416.306274 993.601074,417.390869 995.164856,418.226898 
	C988.691040,427.549927 982.217285,436.872955 975.604126,446.529419 
	C968.947327,456.111023 962.429504,465.359009 955.912415,474.607513 
	C951.162903,481.347687 946.414307,488.088531 941.347534,494.981201 
z"/>
<path fill="#008083" opacity="1.000000" stroke="none" 
	d="
M1006.770630,422.203796 
	C1008.659241,422.288879 1010.335754,422.374176 1011.875977,422.876923 
	C1036.879639,431.038147 1061.869507,439.241882 1086.847046,447.482910 
	C1088.210205,447.932648 1089.437744,448.793335 1090.886475,449.793396 
	C1087.389038,457.311249 1083.787964,464.526581 1080.066040,471.679199 
	C1074.095703,483.152893 1068.057373,494.591339 1062.021240,506.030670 
	C1060.287598,509.316071 1058.462524,512.553223 1056.354736,515.977051 
	C1049.375854,514.443481 1042.783569,512.430359 1036.055786,511.106140 
	C1015.782471,507.115936 995.460999,503.369354 975.148376,499.580750 
	C968.330139,498.309082 961.482239,497.196533 954.202881,496.004456 
	C963.147888,482.757996 972.536560,469.517395 981.928894,456.279358 
	C984.172363,453.117249 986.427856,449.963623 988.824951,446.506226 
	C994.813171,438.270325 1000.654114,430.334259 1006.770630,422.203796 
z"/>
<path fill="#16232B" opacity="1.000000" stroke="none" 
	d="
M1606.000000,680.959961 
	C1606.000000,684.100220 1606.000000,686.745911 1606.000000,689.809937 
	C1595.063354,689.809937 1584.326172,689.809937 1573.197266,689.809937 
	C1573.197266,734.609863 1573.197266,778.993347 1573.197266,823.687805 
	C1562.742432,823.687805 1552.676758,823.687805 1542.210693,823.687805 
	C1542.210693,779.403748 1542.210693,735.020325 1542.210693,690.217529 
	C1531.758911,690.217529 1521.687866,690.217529 1511.310791,690.217529 
	C1511.310791,679.406311 1511.310791,669.007446 1511.310791,658.302979 
	C1542.604370,658.302979 1573.992554,658.302979 1606.000000,658.302979 
	C1606.000000,665.615112 1606.000000,673.040283 1606.000000,680.959961 
z"/>
<path fill="#16232B" opacity="1.000000" stroke="none" 
	d="
M462.000000,694.000000 
	C462.000000,681.531799 462.000000,669.563538 462.000000,657.298279 
	C472.770294,657.298279 483.315002,657.298279 493.448547,657.298279 
	C493.448547,701.808716 493.448547,746.151367 493.448547,790.905029 
	C511.706848,790.905029 530.100830,790.905029 548.745239,790.905029 
	C548.745239,801.707458 548.745239,812.103088 548.745239,822.750244 
	C519.958862,822.750244 491.241608,822.750244 462.000000,822.750244 
	C462.000000,779.967590 462.000000,737.233826 462.000000,694.000000 
z"/>
<path fill="#008083" opacity="1.000000" stroke="none" 
	d="
M825.344727,471.994141 
	C818.697388,470.589539 812.406433,468.805481 806.012207,467.544586 
	C785.940796,463.586517 765.830688,459.825378 745.312378,455.973389 
	C771.482910,437.215240 798.077209,418.472412 824.670166,399.727722 
	C836.061035,391.698578 847.449158,383.665527 859.002563,375.317505 
	C861.324890,375.003357 863.649902,374.475555 865.614746,375.093292 
	C879.998047,379.615234 894.309143,384.366821 909.271790,389.251251 
	C901.235901,397.183167 893.591309,404.728851 885.836304,412.602722 
	C865.701904,432.571960 845.677856,452.213013 825.344727,471.994141 
z"/>
<path fill="#16232B" opacity="1.000000" stroke="none" 
	d="
M688.000000,789.000000 
	C688.000000,744.871155 688.000000,701.242310 688.000000,657.306885 
	C698.603271,657.306885 709.003540,657.306885 719.703247,657.306885 
	C719.703247,712.281494 719.703247,767.333496 719.703247,822.692993 
	C709.396851,822.692993 698.996582,822.692993 688.000000,822.692993 
	C688.000000,811.686523 688.000000,800.593262 688.000000,789.000000 
z"/>
<path fill="#16232B" opacity="1.000000" stroke="none" 
	d="
M773.000000,904.999878 
	C773.000000,890.859985 773.000000,877.220093 773.000000,863.002319 
	C777.490234,863.002319 781.774536,862.804382 786.016602,863.140442 
	C787.088501,863.225281 788.421204,864.838745 788.960999,866.049805 
	C792.864990,874.808411 796.596313,883.643982 800.925537,893.719543 
	C800.925537,882.765869 800.925537,873.115784 800.925537,863.237793 
	C805.077454,863.237793 808.811951,863.237793 812.774780,863.237793 
	C812.774780,884.101379 812.774780,904.834778 812.774780,925.495239 
	C812.327393,925.699646 812.046143,925.937317 811.760315,925.942871 
	C799.485596,926.185059 799.585571,926.146423 793.957458,910.591248 
	C791.553162,903.945984 788.638000,897.485352 785.927063,890.952515 
	C785.846436,890.758179 785.452942,890.693726 785.001709,890.465942 
	C785.001709,902.170410 785.001709,913.773071 785.001709,925.687073 
	C781.075439,925.687073 777.338867,925.687073 773.000000,925.687073 
	C773.000000,919.032349 773.000000,912.266113 773.000000,904.999878 
z"/>
<path fill="#16232B" opacity="1.000000" stroke="none" 
	d="
M1131.174805,878.330688 
	C1136.000366,867.744568 1147.111206,862.687927 1156.067627,864.154907 
	C1166.503052,865.864014 1174.680298,872.951965 1177.926270,885.613098 
	C1180.854126,897.033386 1178.747681,907.759705 1171.882446,917.422546 
	C1164.828979,927.350281 1148.788086,928.944580 1139.462158,921.991821 
	C1128.210693,913.603394 1124.580322,897.925842 1128.612671,884.867859 
	C1129.266602,882.750061 1130.143799,880.701233 1131.174805,878.330688 
M1160.979126,910.528625 
	C1166.518311,903.273193 1168.543701,895.558228 1165.064453,886.616882 
	C1161.066895,876.343811 1150.652222,873.510315 1144.189941,881.386902 
	C1139.233032,887.428894 1138.477295,894.941162 1140.597900,901.796265 
	C1143.861084,912.345398 1152.203003,918.004639 1160.979126,910.528625 
z"/>
<path fill="#16232B" opacity="1.000000" stroke="none" 
	d="
M905.334351,867.170349 
	C919.351440,858.948120 937.118591,866.599792 941.700745,883.675049 
	C944.723511,894.939087 943.833069,906.007935 936.535583,916.150208 
	C928.326843,927.559082 912.650330,929.238464 902.757507,921.095398 
	C886.936890,908.073120 887.416382,881.179199 903.330872,868.279114 
	C903.815125,867.886597 904.470581,867.705261 905.334351,867.170349 
M930.645264,898.870361 
	C932.047668,892.004822 929.635376,886.069519 925.887329,880.602722 
	C923.016968,876.416138 917.301086,875.540527 912.643005,877.776672 
	C901.552856,883.100403 900.625793,904.551941 911.527771,911.746094 
	C915.123596,914.118958 919.063171,914.799377 923.063721,911.588867 
	C927.054443,908.386230 929.549438,904.592224 930.645264,898.870361 
z"/>
<path fill="#16232B" opacity="1.000000" stroke="none" 
	d="
M648.000000,916.960938 
	C648.000000,898.846069 648.000000,881.226929 648.000000,863.304321 
	C651.937256,863.304321 655.670593,863.304321 659.823853,863.304321 
	C659.823853,869.946228 659.823853,876.682312 659.823853,883.706543 
	C666.624878,883.706543 673.021423,883.706543 679.837646,883.706543 
	C679.837646,877.033752 679.837646,870.299744 679.837646,863.285767 
	C683.973877,863.285767 687.706909,863.285767 691.723022,863.285767 
	C691.723022,883.973022 691.723022,904.687378 691.723022,925.701416 
	C688.052979,925.701416 684.319336,925.701416 680.169312,925.701416 
	C680.169312,916.379089 680.169312,906.978638 680.169312,897.292236 
	C673.372375,897.292236 666.975952,897.292236 660.164246,897.292236 
	C660.164246,906.631836 660.164246,916.029846 660.164246,925.711060 
	C656.033447,925.711060 652.300110,925.711060 648.000000,925.711060 
	C648.000000,922.996887 648.000000,920.226746 648.000000,916.960938 
z"/>
<path fill="#16232B" opacity="1.000000" stroke="none" 
	d="
M1494.000000,915.000000 
	C1498.135010,915.000000 1501.776367,915.000000 1505.707764,915.000000 
	C1505.707764,918.962952 1505.707764,922.698059 1505.707764,926.719849 
	C1493.685425,926.719849 1481.621216,926.719849 1469.277466,926.719849 
	C1469.277466,906.009155 1469.277466,885.285339 1469.275635,864.558411 
	C1481.277466,864.555298 1493.281250,864.555298 1505.640137,864.555298 
	C1505.640137,868.831970 1505.640137,872.567688 1505.640137,876.731567 
	C1498.162231,876.731567 1490.421631,876.731567 1482.342773,876.731567 
	C1482.342773,879.870239 1482.342773,882.606262 1482.342773,885.763428 
	C1490.197510,885.763428 1498.276245,885.763428 1506.674805,885.763428 
	C1506.674805,889.899597 1506.674805,893.634705 1506.674805,897.793701 
	C1498.756104,897.793701 1490.681396,897.793701 1482.306641,897.793701 
	C1482.306641,903.603577 1482.306641,909.003479 1482.306641,915.000000 
	C1485.972656,915.000000 1489.739502,915.000000 1494.000000,915.000000 
z"/>
<path fill="#16232B" opacity="1.000000" stroke="none" 
	d="
M414.000000,907.998596 
	C414.000000,892.873901 414.000000,878.248962 414.000000,863.312500 
	C425.914612,863.312500 437.637451,863.312500 449.681213,863.312500 
	C449.681213,866.907410 449.681213,870.640320 449.681213,874.796387 
	C442.088470,874.796387 434.352997,874.796387 426.311523,874.796387 
	C426.311523,877.926880 426.311523,880.660095 426.311523,883.808289 
	C434.584015,883.808289 442.989471,883.808289 451.694275,883.808289 
	C451.694275,887.934326 451.694275,891.667480 451.694275,895.816956 
	C443.394714,895.816956 434.992950,895.816956 426.298767,895.816956 
	C426.298767,901.615601 426.298767,907.011108 426.298767,912.826904 
	C433.952698,912.826904 441.687469,912.826904 449.707458,912.826904 
	C449.707458,916.960022 449.707458,920.692993 449.707458,924.716187 
	C438.033783,924.716187 426.309631,924.716187 414.000000,924.716187 
	C414.000000,919.346436 414.000000,913.922424 414.000000,907.998596 
z"/>
<path fill="#16232B" opacity="1.000000" stroke="none" 
	d="
M1273.050903,877.469360 
	C1268.911621,878.959778 1267.448608,882.169250 1267.095215,885.596863 
	C1266.240479,893.888672 1271.300293,908.992493 1283.758789,912.929443 
	C1283.758789,904.776306 1283.758789,896.728943 1283.758789,888.342163 
	C1287.864746,888.342163 1291.598389,888.342163 1295.670898,888.342163 
	C1295.670898,900.875122 1295.670898,913.604919 1295.670898,926.376709 
	C1283.150269,929.519104 1267.513794,921.467529 1260.867310,909.781433 
	C1255.884644,901.020813 1253.788208,891.770874 1255.149048,882.072571 
	C1256.650391,871.371399 1263.574707,865.837463 1275.156494,864.145264 
	C1280.828979,863.316406 1286.722778,864.001648 1292.755127,864.001648 
	C1292.755127,868.394775 1292.755127,872.460449 1292.755127,877.166016 
	C1286.221436,877.166016 1279.783691,877.166016 1273.050903,877.469360 
z"/>
<path fill="#16232B" opacity="1.000000" stroke="none" 
	d="
M543.180237,879.333435 
	C538.403748,885.077209 541.960144,898.850464 547.665039,905.290039 
	C553.588135,911.976013 560.819641,914.127136 569.675049,912.764771 
	C569.675049,917.219116 569.675049,921.291199 569.675049,925.395020 
	C552.617493,928.766907 536.953308,917.854309 531.076477,901.476135 
	C528.737488,894.957764 527.535461,888.375854 528.731140,881.063416 
	C530.728882,868.844971 540.264832,863.954346 549.566833,863.115540 
	C556.150208,862.521973 562.830261,863.000732 569.731689,863.000732 
	C569.731689,867.347961 569.731689,871.416565 569.731689,876.000000 
	C563.592590,876.000000 557.460754,875.698730 551.382324,876.137634 
	C548.682983,876.332581 546.091492,878.021667 543.180237,879.333435 
z"/>
<path fill="#16232B" opacity="1.000000" stroke="none" 
	d="
M1591.808228,893.302246 
	C1587.292480,889.071777 1583.765015,885.066895 1583.825928,878.425903 
	C1583.894043,871.004456 1589.827148,865.540649 1596.514038,865.058533 
	C1600.796753,864.749756 1605.119751,865.000671 1609.710205,865.000671 
	C1609.710205,868.963623 1609.710205,872.697754 1609.710205,877.000000 
	C1607.323242,877.000000 1604.872925,876.813538 1602.465820,877.055481 
	C1600.321899,877.271057 1598.225464,877.960693 1595.162231,878.655518 
	C1601.823853,884.568237 1607.688232,889.117432 1612.745483,894.434387 
	C1618.563843,900.551697 1620.917114,908.023438 1617.983276,916.432373 
	C1615.867798,922.495789 1609.475342,926.956421 1603.063965,926.992981 
	C1597.905029,927.022400 1592.745972,926.992004 1587.586914,926.976501 
	C1587.269653,926.975525 1586.952637,926.872314 1586.318359,926.761047 
	C1586.318359,923.091614 1586.318359,919.358154 1586.318359,915.000000 
	C1590.440308,915.000000 1594.756348,915.419434 1598.935181,914.843567 
	C1601.466064,914.494873 1604.792725,913.173462 1605.888306,911.231873 
	C1606.811279,909.596130 1605.805908,905.709229 1604.293213,904.092896 
	C1600.637939,900.187744 1596.186890,897.027527 1591.808228,893.302246 
z"/>
<path fill="#16232B" opacity="1.000000" stroke="none" 
	d="
M325.038513,876.249634 
	C325.006195,892.668091 325.006195,908.605896 325.006195,924.770569 
	C320.908691,924.770569 317.177582,924.770569 313.043457,924.770569 
	C313.043457,908.240906 313.043457,891.850342 313.043457,875.048096 
	C308.920685,875.048096 305.173676,875.048096 301.223938,875.048096 
	C301.223938,870.901062 301.223938,867.168823 301.223938,863.217407 
	C313.442047,863.217407 325.499908,863.217407 337.779144,863.217407 
	C337.779144,867.109375 337.779144,870.840820 337.779144,874.573120 
	C333.429871,874.982361 329.250336,875.375671 325.038513,876.249634 
z"/>
<path fill="#16232B" opacity="1.000000" stroke="none" 
	d="
M1022.000000,894.880066 
	C1022.000000,884.446228 1022.000000,874.498657 1022.000000,864.276611 
	C1025.989624,864.276611 1029.719727,864.276611 1033.835693,864.276611 
	C1033.835693,880.640442 1033.835693,897.017578 1033.835693,913.800903 
	C1040.928101,913.800903 1047.658447,913.800903 1054.691650,913.800903 
	C1054.691650,917.926697 1054.691650,921.657532 1054.691650,925.697144 
	C1043.747803,925.697144 1032.695801,925.697144 1020.629272,925.697144 
	C1021.083374,915.649292 1021.541687,905.507812 1022.000000,894.880066 
z"/>
<path fill="#16232B" opacity="1.000000" stroke="none" 
	d="
M1388.597534,864.423218 
	C1388.929688,885.374939 1388.929688,905.979126 1388.929688,926.788452 
	C1384.530518,926.788452 1380.464966,926.788452 1376.208618,926.788452 
	C1376.208618,905.852783 1376.208618,885.128784 1376.208618,864.075684 
	C1380.359375,864.075684 1384.312378,864.075684 1388.597534,864.423218 
z"/>
<path fill="#004041" opacity="1.000000" stroke="none" 
	d="
M1612.232544,619.830811 
	C1611.975098,620.009827 1611.559326,619.946777 1610.907349,619.677307 
	C1610.858398,619.375305 1611.045654,619.279724 1611.541626,619.119995 
	C1611.924927,619.233582 1611.999634,619.411194 1612.232544,619.830811 
z"/>
<path fill="#056068" opacity="1.000000" stroke="none" 
	d="
M995.442993,418.033417 
	C993.601074,417.390869 992.119751,416.306274 990.461121,415.756439 
	C968.338623,408.423065 946.194092,401.156342 924.043884,393.906891 
	C922.648438,393.450165 921.161316,393.273590 919.307739,392.943604 
	C952.976624,359.649048 987.054443,326.377594 1021.335266,292.907959 
	C1036.375244,301.262451 1051.237305,309.518066 1066.622925,318.064575 
	C1042.837646,351.536072 1019.279358,384.688019 995.442993,418.033417 
z"/>
<path fill="#FFFFFF" opacity="1.000000" stroke="none" 
	d="
M1150.270020,719.301392 
	C1142.161377,729.552246 1132.935181,737.903015 1121.198730,743.910767 
	C1121.198730,725.466431 1121.198730,707.451294 1121.198730,688.553894 
	C1130.086914,689.043274 1138.934326,688.602112 1147.374146,690.249207 
	C1156.282593,691.987732 1159.921265,701.212219 1156.050903,709.414124 
	C1154.479126,712.745178 1152.362793,715.819275 1150.270020,719.301392 
z"/>
<path fill="#FFFFFF" opacity="1.000000" stroke="none" 
	d="
M1315.032959,750.118042 
	C1313.599976,766.336609 1302.496826,786.573792 1285.662109,791.127625 
	C1275.223633,793.951233 1266.317505,790.940613 1258.699341,784.067749 
	C1248.077637,774.485352 1243.611328,761.977356 1241.862915,747.955566 
	C1240.076050,733.625916 1243.292480,720.547729 1250.342651,708.460449 
	C1256.866333,697.275818 1266.322144,689.566711 1280.184448,690.078308 
	C1290.118408,690.445007 1297.850464,695.890991 1303.616333,703.392151 
	C1313.405518,716.127808 1316.965942,730.963928 1315.964844,746.918579 
	C1315.906372,747.849976 1315.372803,748.751526 1315.032959,750.118042 
z"/>
<path fill="#FFFFFF" opacity="1.000000" stroke="none" 
	d="
M1447.569336,694.208984 
	C1461.255615,703.959900 1468.129883,717.070129 1470.084106,733.286194 
	C1472.427246,752.729614 1467.899414,769.976929 1453.678711,783.586365 
	C1441.431519,795.307068 1425.728149,795.918457 1413.104858,783.669434 
	C1403.477051,774.327087 1398.761108,762.988281 1396.854248,749.809570 
	C1394.250122,731.811218 1398.472534,715.574951 1409.870239,702.082825 
	C1418.776245,691.540039 1431.078247,685.440857 1447.569336,694.208984 
z"/>
<path fill="#FFFFFF" opacity="1.000000" stroke="none" 
	d="
M377.772888,704.434326 
	C380.613342,714.734863 383.279480,724.667297 385.909088,734.609436 
	C388.002991,742.526184 390.052338,750.454712 392.211304,758.722107 
	C381.321442,758.722107 370.779358,758.722107 360.100464,758.722107 
	C365.457458,739.143311 370.782318,719.682068 376.359222,699.299622 
	C376.949463,701.601013 377.266144,702.835754 377.772888,704.434326 
z"/>
<path fill="#FFFFFF" opacity="1.000000" stroke="none" 
	d="
M621.251465,726.248718 
	C614.187317,732.246582 607.374329,737.993591 599.424622,744.699524 
	C599.424622,724.763306 599.424622,706.627869 599.424622,687.571106 
	C607.867615,688.044434 616.428162,688.042603 624.846069,689.137634 
	C632.601929,690.146423 637.510559,699.154053 634.974915,706.494629 
	C632.304626,714.224915 627.513489,720.546448 621.251465,726.248718 
z"/>
<path fill="#FFFFFF" opacity="1.000000" stroke="none" 
	d="
M1160.699219,910.790649 
	C1152.203003,918.004639 1143.861084,912.345398 1140.597900,901.796265 
	C1138.477295,894.941162 1139.233032,887.428894 1144.189941,881.386902 
	C1150.652222,873.510315 1161.066895,876.343811 1165.064453,886.616882 
	C1168.543701,895.558228 1166.518311,903.273193 1160.699219,910.790649 
z"/>
<path fill="#FFFFFF" opacity="1.000000" stroke="none" 
	d="
M930.357483,899.190796 
	C929.549438,904.592224 927.054443,908.386230 923.063721,911.588867 
	C919.063171,914.799377 915.123596,914.118958 911.527771,911.746094 
	C900.625793,904.551941 901.552856,883.100403 912.643005,877.776672 
	C917.301086,875.540527 923.016968,876.416138 925.887329,880.602722 
	C929.635376,886.069519 932.047668,892.004822 930.357483,899.190796 
z"/>
</svg>